<?xml version="1.0" encoding="utf-8"?>
<!-- Generator: Adobe Illustrator 17.0.0, SVG Export Plug-In . SVG Version: 6.00 Build 0)  -->
<!DOCTYPE svg PUBLIC "-//W3C//DTD SVG 1.1//EN" "http://www.w3.org/Graphics/SVG/1.1/DTD/svg11.dtd">
<svg version="1.1" id="Слой_1" xmlns="http://www.w3.org/2000/svg" xmlns:xlink="http://www.w3.org/1999/xlink" x="0px" y="0px"
	 width="42.543px" height="42.536px" viewBox="0 0 42.543 42.536" enable-background="new 0 0 42.543 42.536" xml:space="preserve">
<path fill="#8596A4" d="M41.479,36.195L29.673,24.389c2.618-4.3,3.23-9.953,0.543-15.668C28.79,5.686,26.32,3.208,23.291,1.77
	C9.003-5.013-4.96,8.897,1.719,23.186c1.415,3.026,3.864,5.504,6.873,6.956c5.652,2.727,11.25,2.185,15.551-0.327L35.658,41.33
	c1.607,1.607,4.213,1.608,5.821,0.001l0,0C42.897,39.913,42.898,37.613,41.479,36.195z M6.343,21.517
	C0.905,11.224,11.238,0.898,21.525,6.348c1.733,0.918,3.179,2.366,4.094,4.101c5.424,10.283-4.891,20.596-15.175,15.167
	C8.708,24.7,7.26,23.252,6.343,21.517z"/>
</svg>
