<?xml version="1.0" encoding="utf-8"?>
<!-- Generator: Adobe Illustrator 17.0.0, SVG Export Plug-In . SVG Version: 6.00 Build 0)  -->
<!DOCTYPE svg PUBLIC "-//W3C//DTD SVG 1.1//EN" "http://www.w3.org/Graphics/SVG/1.1/DTD/svg11.dtd">
<svg version="1.1" id="Слой_1" xmlns="http://www.w3.org/2000/svg" xmlns:xlink="http://www.w3.org/1999/xlink" x="0px" y="0px"
	 width="22px" height="21.064px" viewBox="0 0 22 21.064" enable-background="new 0 0 22 21.064" xml:space="preserve">
<g>
	<path fill="#F7A853" d="M17.226,15.737c-2.885-1.051-3.807-1.938-3.807-3.837c0-1.14,0.881-0.768,1.268-2.855
		c0.16-0.866,0.938-0.014,1.087-1.991c0-0.788-0.425-0.984-0.425-0.984s0.216-1.166,0.3-2.063C15.754,2.889,15.004,0,11,0
		S6.245,2.889,6.35,4.007c0.085,0.897,0.3,2.063,0.3,2.063S6.226,6.266,6.226,7.054c0.149,1.977,0.927,1.125,1.087,1.991
		C7.7,11.132,8.58,10.76,8.58,11.9c0,1.899-0.922,2.786-3.806,3.837C1.88,16.792,0,17.867,0,18.6c0,0.733,0,2.464,0,2.464h11h11
		c0,0,0-1.731,0-2.464C22,17.867,20.12,16.792,17.226,15.737z"/>
</g>
</svg>
