<?xml version="1.0" encoding="utf-8"?>
<!-- Generator: Adobe Illustrator 17.0.0, SVG Export Plug-In . SVG Version: 6.00 Build 0)  -->
<!DOCTYPE svg PUBLIC "-//W3C//DTD SVG 1.1//EN" "http://www.w3.org/Graphics/SVG/1.1/DTD/svg11.dtd">
<svg version="1.1" id="Слой_1" xmlns="http://www.w3.org/2000/svg" xmlns:xlink="http://www.w3.org/1999/xlink" x="0px" y="0px"
	 width="56px" height="56px" viewBox="0 0 56 56" enable-background="new 0 0 56 56" xml:space="preserve">
<symbol  id="FloorsIcon_3" viewBox="-20 -20 40 40">
	<polygon opacity="0" fill="#F7AA44" points="20,-20 -20,-20 -20,20 20,20 	"/>
	<g>
		<path fill="#F7AA44" d="M17-11v3c0,1.104-0.896,2-2,2h-29c-1.104,0-2-0.896-2-2v-3H17z"/>
	</g>
	<path fill="#F7AA44" d="M15-5h-29v3c0,1.105,0.895,2,2,2h25c1.105,0,2-0.895,2-2V-5z"/>
	<path fill="#F7AA44" d="M13,1h-25v3c0,1.105,0.895,2,2,2h21c1.105,0,2-0.895,2-2V1z"/>
	<path fill="#F7AA44" d="M11,7h-21v3c0,1.105,0.895,2,2,2H9c1.105,0,2-0.895,2-2V7z"/>
</symbol>
<use xlink:href="#FloorsIcon_3"  width="40" height="40" id="XMLID_55_" x="-20" y="-20" transform="matrix(1.4 0 0 -1.4 28 28)" overflow="visible"/>
</svg>
