<?xml version="1.0" encoding="utf-8"?>
<!-- Generator: Adobe Illustrator 17.0.0, SVG Export Plug-In . SVG Version: 6.00 Build 0)  -->
<!DOCTYPE svg PUBLIC "-//W3C//DTD SVG 1.1//EN" "http://www.w3.org/Graphics/SVG/1.1/DTD/svg11.dtd">
<svg version="1.1" id="Слой_1" xmlns="http://www.w3.org/2000/svg" xmlns:xlink="http://www.w3.org/1999/xlink" x="0px" y="0px"
	 width="56px" height="56px" viewBox="0 0 56 56" enable-background="new 0 0 56 56" xml:space="preserve">
<symbol  id="BathesIcon_2" viewBox="-20 -20 40 40">
	<polygon opacity="0" fill="#F7AA44" points="20,-20 -20,-20 -20,20 20,20 	"/>
	<g>
		<path fill="#F7AA44" d="M16,4.558v8.961C16,15.321,14.882,18,11.594,18c-2.766,0-4-2.035-4.337-3.709
			C5.92,13.86,4.983,13,4.983,11h6.651c0,2-0.856,2.719-2.069,3.215c0.211,0.647,0.789,1.474,2.149,1.474
			c2.045,0,2.286-1.652,2.286-2.17V5h-28.734C-15.352,5-16,4.056-16,3.438v-1.12c0-0.619,1-1.12,1-1.12v-3.36
			c0-2.428,2.182-4.813,4.551-5.438c-0.111-0.548-0.33-1.283-0.991-1.283c-0.618,0-1.087-0.501-1.087-1.12s0.518-1.239,1.137-1.239
			C-9.455-11.242-8.298-9-8.063-8H9.478c0.236-1,1.377-3.242,3.31-3.242c0.619,0,1.12,0.56,1.12,1.179s-0.501,1.15-1.12,1.15
			c-0.661,0-1.021,0.75-1.132,1.297C14.026-6.991,16-4.591,16-2.163v3.36c1,0,1,0.501,1,1.12v1.12C17,4.056,17,4.558,16,4.558z
			 M5.457,10.023l0.068,0.271c0.074,0.301,0.374,0.484,0.679,0.408c0.301-0.075,0.483-0.379,0.408-0.679L6.543,9.752
			C6.48,9.497,6.251,9.328,6,9.328c-0.045,0-0.09,0.006-0.136,0.017C5.564,9.42,5.383,9.723,5.457,10.023z M4.91,7.835l0.11,0.438
			c0.074,0.3,0.373,0.485,0.679,0.408C6,8.605,6.182,8.302,6.107,8.002l-0.11-0.438C5.933,7.308,5.704,7.139,5.454,7.139
			c-0.045,0-0.09,0.006-0.136,0.017C5.018,7.231,4.835,7.536,4.91,7.835z M4.405,5.814l0.068,0.271
			c0.074,0.3,0.374,0.485,0.679,0.408C5.454,6.418,5.635,6.114,5.56,5.814L5.492,5.543C5.429,5.287,5.2,5.118,4.948,5.118
			c-0.045,0-0.09,0.006-0.136,0.017C4.512,5.21,4.33,5.515,4.405,5.814z M11.161,10.023c0.074-0.3-0.108-0.604-0.408-0.679
			c-0.045-0.011-0.091-0.017-0.136-0.017c-0.252,0-0.481,0.169-0.543,0.425l-0.068,0.271c-0.074,0.3,0.108,0.604,0.408,0.679
			c0.293,0.077,0.604-0.106,0.679-0.408L11.161,10.023z M11.707,7.835c0.074-0.3-0.108-0.604-0.408-0.679
			c-0.045-0.011-0.091-0.017-0.136-0.017c-0.252,0-0.481,0.169-0.543,0.425l-0.11,0.438c-0.074,0.3,0.108,0.604,0.408,0.679
			c0.293,0.078,0.604-0.108,0.679-0.408L11.707,7.835z M11.465,6.493c0.297,0.078,0.604-0.108,0.679-0.408l0.068-0.271
			c0.074-0.3-0.108-0.604-0.408-0.679c-0.045-0.011-0.091-0.017-0.136-0.017c-0.252,0-0.481,0.169-0.543,0.425l-0.068,0.271
			C10.984,6.114,11.165,6.418,11.465,6.493z M7.749,9.879v0.28c0,0.309,0.251,0.56,0.56,0.56c0.309,0,0.56-0.251,0.56-0.56v-0.28
			c0-0.309-0.251-0.56-0.56-0.56C8,9.319,7.749,9.57,7.749,9.879z M7.749,8.136c0,0.309,0.251,0.56,0.56,0.56
			c0.309,0,0.56-0.251,0.56-0.56V7.7c0-0.309-0.251-0.56-0.56-0.56C8,7.14,7.749,7.391,7.749,7.7V8.136z M7.749,5.958
			c0,0.309,0.251,0.56,0.56,0.56c0.309,0,0.56-0.251,0.56-0.56v-0.28c0-0.309-0.251-0.56-0.56-0.56c-0.309,0-0.56,0.251-0.56,0.56
			V5.958z"/>
	</g>
</symbol>
<use xlink:href="#BathesIcon_2"  width="40" height="40" id="XMLID_60_" x="-20" y="-20" transform="matrix(1.4 0 0 -1.4 28 28)" overflow="visible"/>
</svg>
