<?xml version="1.0" encoding="utf-8"?>
<!-- Generator: Adobe Illustrator 17.0.0, SVG Export Plug-In . SVG Version: 6.00 Build 0)  -->
<!DOCTYPE svg PUBLIC "-//W3C//DTD SVG 1.1//EN" "http://www.w3.org/Graphics/SVG/1.1/DTD/svg11.dtd">
<svg version="1.1" id="Слой_1" xmlns="http://www.w3.org/2000/svg" xmlns:xlink="http://www.w3.org/1999/xlink" x="0px" y="0px"
	 width="56px" height="42px" viewBox="0 0 56 42" enable-background="new 0 0 56 42" xml:space="preserve">
<path fill="#F49926" d="M56,18.393V7.231C56,3.229,52.814,0,48.889,0H28.029h-0.054H7.109C3.185,0,0,3.229,0,7.233v27.523
	C0,38.76,3.185,42,7.109,42h20.865h0.054h19.806C52.344,42,56,38.344,56,33.833V18.393z M28.002,28.74
	c-1.47,0-2.858-0.729-3.883-1.787L8.174,10.459c-0.943-0.971-0.935-2.552,0.02-3.514c0.953-0.96,2.49-0.957,3.432,0.018
	c0,0,11.947,12.372,15.947,16.479c0.258,0.263,0.641,0.22,0.855,0c3.999-4.106,15.946-16.473,15.946-16.473
	c0.943-0.974,2.479-0.981,3.434-0.02c0.952,0.96,0.962,2.539,0.019,3.51L31.883,26.953C30.859,28.011,29.471,28.74,28.002,28.74z"/>
</svg>
