<?xml version="1.0" encoding="utf-8"?>
<!-- Generator: Adobe Illustrator 17.0.0, SVG Export Plug-In . SVG Version: 6.00 Build 0)  -->
<!DOCTYPE svg PUBLIC "-//W3C//DTD SVG 1.1//EN" "http://www.w3.org/Graphics/SVG/1.1/DTD/svg11.dtd">
<svg version="1.1" id="Слой_1" xmlns="http://www.w3.org/2000/svg" xmlns:xlink="http://www.w3.org/1999/xlink" x="0px" y="0px"
	 width="56px" height="56px" viewBox="0 0 56 56" enable-background="new 0 0 56 56" xml:space="preserve">
<symbol  id="NewHouse_3" viewBox="-20 -20 40 40">
	<polygon opacity="0" fill="#F3F3F3" points="20,-20 -20,-20 -20,20 20,20 	"/>
	<path fill="#F7AA44" d="M1,10l-7.316-5.065c-0.188-0.299-0.452-0.555-0.79-0.724L-7.528,4l0.422-0.211
		c0.478-0.239,0.834-0.65,1.003-1.157c0.169-0.506,0.13-1.049-0.108-1.527c-0.032-0.063-0.081-0.113-0.118-0.172
		C-6.225,0.97-6.117,1-6,1h4c0.552,0,1-0.448,1-1v-4c0-0.552-0.448-1-1-1h-4c-0.552,0-1,0.448-1,1v4c0,0.108,0.03,0.207,0.062,0.305
		C-7.25,0.109-7.615,0-8.001,0C-8.31,0-8.618,0.073-8.895,0.211L-10,0.764V0c0-1.103-0.897-2-2-2v-7H3v8c0,0.552,0.448,1,1,1h4
		c0.552,0,1-0.448,1-1v-8h5V3L1,10z"/>
	<path fill="#F7AA44" d="M17.458,4.889l-16,8.25c-0.317,0.164-0.697,0.146-0.998-0.047l-8.039-5.15
		c0.586-0.125,1.092-0.495,1.368-1.048c0.059-0.118,0.104-0.24,0.138-0.363l7.127,4.566l15.487-7.986
		c0.492-0.253,1.094-0.061,1.347,0.43C18.142,4.033,17.949,4.636,17.458,4.889z"/>
	<path fill="#F7AA44" d="M-8.553,3.895L-10.764,5l2.211,1.105c0.494,0.247,0.694,0.848,0.447,1.342
		c-0.247,0.494-0.846,0.695-1.342,0.447L-12,6.618V10c0,0.552-0.448,1-1,1s-1-0.448-1-1V6.618l-2.553,1.276
		c-0.495,0.248-1.095,0.046-1.342-0.447c-0.247-0.494-0.047-1.095,0.447-1.342L-15.237,5l-2.211-1.105
		c-0.494-0.247-0.694-0.848-0.447-1.342C-17.72,2.202-17.367,2-16.999,2c0.15,0,0.303,0.034,0.446,0.105L-14,3.382V0
		c0-0.552,0.448-1,1-1s1,0.448,1,1v3.382l2.553-1.276C-9.304,2.034-9.151,2-9.001,2c0.367,0,0.72,0.202,0.896,0.553
		C-7.859,3.047-8.059,3.647-8.553,3.895z"/>
	<path fill="#F7AA44" d="M12,6L7,9v2c0,0.552,0.448,1,1,1h3c0.552,0,1-0.448,1-1V6z"/>
	<path fill="#F7AA44" d="M14-12h-26c-0.552,0-1,0.448-1,1v0c0,0.552,0.448,1,1,1h26c0.552,0,1-0.448,1-1v0
		C15-11.552,14.552-12,14-12z"/>
</symbol>
<use xlink:href="#NewHouse_3"  width="40" height="40" id="XMLID_59_" x="-20" y="-20" transform="matrix(1.4 0 0 -1.4 28 28)" overflow="visible"/>
</svg>
