<?xml version="1.0" encoding="utf-8"?>
<!-- Generator: Adobe Illustrator 17.0.0, SVG Export Plug-In . SVG Version: 6.00 Build 0)  -->
<!DOCTYPE svg PUBLIC "-//W3C//DTD SVG 1.1//EN" "http://www.w3.org/Graphics/SVG/1.1/DTD/svg11.dtd">
<svg version="1.1" id="Слой_1" xmlns="http://www.w3.org/2000/svg" xmlns:xlink="http://www.w3.org/1999/xlink" x="0px" y="0px"
	 width="41.645px" height="39.93px" viewBox="0 0 41.645 39.93" enable-background="new 0 0 41.645 39.93" xml:space="preserve">
<g>
	<path fill="#F49926" d="M41.483,15.009c-0.395-1.219-1.428-2.091-2.698-2.277l-10.34-1.502l-4.622-9.368
		C23.256,0.714,22.107,0,20.826,0c-1.279,0-2.427,0.713-2.997,1.863l-4.626,9.367L2.864,12.732c-1.27,0.185-2.305,1.058-2.697,2.273
		c-0.398,1.218-0.074,2.532,0.845,3.429l7.481,7.293L6.727,36.023c-0.216,1.264,0.294,2.517,1.331,3.269
		c1.012,0.735,2.415,0.835,3.52,0.254l9.246-4.861l9.25,4.863c0.478,0.25,1.015,0.382,1.553,0.382c0.711,0,1.391-0.221,1.964-0.638
		c1.036-0.752,1.546-2.004,1.331-3.27l-1.765-10.297l7.479-7.291C41.542,17.554,41.874,16.208,41.483,15.009z"/>
</g>
</svg>
